<svg width="26" height="26" viewBox="0 0 26 26" fill="none" xmlns="http://www.w3.org/2000/svg">
<path d="M16.2501 17.3333H9.75008C9.46276 17.3333 9.18721 17.4475 8.98405 17.6506C8.78088 17.8538 8.66675 18.1293 8.66675 18.4167C8.66675 18.704 8.78088 18.9795 8.98405 19.1827C9.18721 19.3859 9.46276 19.5 9.75008 19.5H16.2501C16.5374 19.5 16.8129 19.3859 17.0161 19.1827C17.2193 18.9795 17.3334 18.704 17.3334 18.4167C17.3334 18.1293 17.2193 17.8538 17.0161 17.6506C16.8129 17.4475 16.5374 17.3333 16.2501 17.3333ZM9.75008 15.1667H13.0001C13.2874 15.1667 13.5629 15.0525 13.7661 14.8494C13.9693 14.6462 14.0834 14.3707 14.0834 14.0833C14.0834 13.796 13.9693 13.5205 13.7661 13.3173C13.5629 13.1141 13.2874 13 13.0001 13H9.75008C9.46276 13 9.18721 13.1141 8.98405 13.3173C8.78088 13.5205 8.66675 13.796 8.66675 14.0833C8.66675 14.3707 8.78088 14.6462 8.98405 14.8494C9.18721 15.0525 9.46276 15.1667 9.75008 15.1667Z" fill="#00AAB7"/>
<path d="M21.3849 9.02371L15.4916 2.52371C15.3903 2.41149 15.2666 2.3217 15.1286 2.26013C14.9905 2.19856 14.8411 2.16657 14.6899 2.16621H7.10659C6.74665 2.16192 6.38939 2.22857 6.05521 2.36235C5.72103 2.49614 5.41648 2.69445 5.15895 2.94594C4.90142 3.19744 4.69595 3.4972 4.55427 3.82812C4.4126 4.15903 4.33749 4.51461 4.33325 4.87454V21.1245C4.33749 21.4845 4.4126 21.8401 4.55427 22.171C4.69595 22.5019 4.90142 22.8016 5.15895 23.0531C5.41648 23.3046 5.72103 23.5029 6.05521 23.6367C6.38939 23.7705 6.74665 23.8372 7.10659 23.8329H18.8933C19.2532 23.8372 19.6104 23.7705 19.9446 23.6367C20.2788 23.5029 20.5834 23.3046 20.8409 23.0531C21.0984 22.8016 21.3039 22.5019 21.4456 22.171C21.5872 21.8401 21.6623 21.4845 21.6666 21.1245V9.74954C21.6659 9.48106 21.5655 9.22239 21.3849 9.02371ZM15.1666 5.41621L18.1349 8.66621H15.9683C15.8548 8.65936 15.7439 8.62998 15.6419 8.57979C15.5399 8.52961 15.449 8.45961 15.3743 8.37389C15.2997 8.28817 15.2429 8.18844 15.2072 8.08053C15.1716 7.97262 15.1577 7.85869 15.1666 7.74538V5.41621ZM18.8933 21.6662H7.10659C7.03116 21.6706 6.9556 21.6601 6.88426 21.6352C6.81291 21.6103 6.74717 21.5716 6.69081 21.5213C6.63445 21.471 6.58858 21.41 6.55582 21.342C6.52307 21.2739 6.50407 21.2 6.49992 21.1245V4.87454C6.50407 4.7991 6.52307 4.72522 6.55582 4.65714C6.58858 4.58905 6.63445 4.5281 6.69081 4.47778C6.74717 4.42746 6.81291 4.38876 6.88426 4.36389C6.9556 4.33903 7.03116 4.32849 7.10659 4.33288H12.9999V7.74538C12.9824 8.54339 13.2813 9.31591 13.8313 9.89435C14.3814 10.4728 15.1379 10.8102 15.9358 10.8329H19.4999V21.1245C19.4958 21.2 19.4768 21.2739 19.444 21.342C19.4113 21.41 19.3654 21.471 19.309 21.5213C19.2527 21.5716 19.1869 21.6103 19.1156 21.6352C19.0442 21.6601 18.9687 21.6706 18.8933 21.6662Z" fill="#00AAB7"/>
</svg>
