<svg width="109" height="40" viewBox="0 0 109 40" fill="none" xmlns="http://www.w3.org/2000/svg">
<path d="M21.68 15.5486C21.0716 14.609 20.2743 13.8028 19.3374 13.1802C18.4005 12.5575 17.344 12.1316 16.2335 11.929C15.7452 11.8408 15.2499 11.7959 14.7534 11.7949C12.9281 11.794 11.1544 12.3931 9.71191 13.4977C8.26942 14.6023 7.24023 16.1497 6.7866 17.8959C6.33296 19.642 6.48069 21.4876 7.20649 23.1417C7.93228 24.7958 9.19486 26.1642 10.7952 27.0313C12.3955 27.8984 14.2425 28.2148 16.045 27.9306C17.8475 27.6464 19.503 26.7779 20.7504 25.4618C21.9979 24.1458 22.7663 22.4571 22.9346 20.6621C23.1029 18.8671 22.6615 17.0678 21.68 15.5479V15.5486ZM20.472 19.9107C20.4722 21.0275 20.137 22.1193 19.5088 23.0479C18.8807 23.9765 17.9878 24.7004 16.9431 25.1278C15.8984 25.5552 14.7488 25.6671 13.6397 25.4493C12.5306 25.2314 11.5118 24.6937 10.7122 23.904C9.91261 23.1143 9.36809 22.1081 9.14751 21.0128C8.92694 19.9174 9.04022 18.7821 9.47303 17.7503C9.90583 16.7186 10.6387 15.8368 11.579 15.2164C12.5193 14.596 13.6248 14.265 14.7556 14.2651C16.2708 14.2673 17.7233 14.8629 18.7945 15.9213C19.8657 16.9796 20.4682 18.4143 20.4699 19.9107H20.472Z" fill="#00AAB7"/>
<path d="M23.2482 13.4358V7.30664L17.8479 9.8491C18.9493 10.0482 19.9974 10.4695 20.9265 11.0866C21.8557 11.7037 22.646 12.5034 23.2482 13.4358Z" fill="black"/>
<path d="M6.45764 26.5645V32.6936L11.8579 30.1511C10.7564 29.9521 9.70838 29.5309 8.7792 28.9137C7.85003 28.2966 7.05971 27.4969 6.45764 26.5645Z" fill="black"/>
<path d="M36.8782 19.4596C36.7036 19.9218 36.4294 20.3411 36.0746 20.6884C35.6814 21.0647 35.2101 21.352 34.6933 21.5305C34.1319 21.7368 33.4723 21.84 32.7144 21.84H28.5967V26.948H26.4415V14.0996H32.7115C33.4694 14.0996 34.1291 14.2028 34.6904 14.4091C35.2072 14.5876 35.6786 14.8749 36.0717 15.2512C36.4295 15.6013 36.7048 16.0249 36.8782 16.4919C37.2309 17.4512 37.2309 18.5024 36.8782 19.4617V19.4596ZM34.36 16.5473C33.9422 16.2198 33.3676 16.0561 32.6362 16.0561H28.5967V19.8877H32.6334C33.3648 19.8877 33.9394 19.7239 34.3572 19.3964C34.775 19.069 34.9841 18.5948 34.9846 17.974C34.9846 17.3522 34.7755 16.8767 34.3572 16.5473H34.36Z" fill="black"/>
<path d="M47.1911 26.9483H38.0995V24.9946L43.3505 20.3693C43.7331 20.0319 44.075 19.6521 44.3695 19.2374C44.6517 18.8457 44.8026 18.3764 44.8008 17.8956C44.8008 17.25 44.5853 16.7403 44.1542 16.3665C43.7231 15.9927 43.1746 15.8056 42.5085 15.8051C41.933 15.7937 41.3681 15.9592 40.892 16.2788C40.4282 16.5951 40.118 17.0886 39.9612 17.7595H37.7307C37.8388 17.2055 38.0304 16.6707 38.2992 16.1728C38.5523 15.7054 38.8874 15.286 39.289 14.9342C39.6961 14.5809 40.1682 14.3081 40.6795 14.1307C41.237 13.9392 41.8238 13.8442 42.414 13.85C43.0427 13.8425 43.6683 13.9373 44.2657 14.1307C44.7893 14.3019 45.2731 14.5744 45.689 14.9321C46.0893 15.2823 46.407 15.7149 46.6198 16.1995C46.8474 16.7218 46.961 17.2857 46.9531 17.8542C46.9554 18.5331 46.7772 19.2007 46.4365 19.7904C46.0647 20.4283 45.5918 21.0032 45.036 21.4935L41.0782 24.996H47.189L47.1911 26.9483Z" fill="black"/>
<path d="M58.8785 19.4596C58.7038 19.9217 58.4299 20.3409 58.0755 20.6884C57.6821 21.0644 57.2109 21.3517 56.6942 21.5305C56.1314 21.7368 55.4711 21.84 54.7132 21.84H50.6004V26.948H48.4453V14.0996H54.7132C55.4711 14.0996 56.1307 14.2028 56.6921 14.4091C57.2087 14.5879 57.68 14.8752 58.0734 15.2512C58.4304 15.6016 58.7052 16.0251 58.8785 16.4919C59.2312 17.4512 59.2312 18.5024 58.8785 19.4617V19.4596ZM56.361 16.5473C55.9431 16.2198 55.3683 16.0561 54.6364 16.0561H50.6004V19.8877H54.6364C55.3683 19.8877 55.9431 19.7239 56.361 19.3964C56.7788 19.069 56.9874 18.5934 56.987 17.9698C56.987 17.3508 56.7783 16.8767 56.361 16.5473Z" fill="black"/>
<path d="M65.3346 19.7002C64.9163 19.5253 64.3938 19.4378 63.7671 19.4378C63.1787 19.4378 62.7083 19.5313 62.3559 19.7185C62.0035 19.9056 61.8273 20.1667 61.8273 20.5016C61.8217 20.6443 61.86 20.7852 61.9369 20.9061C62.0139 21.0269 62.126 21.122 62.2586 21.1788C62.5456 21.3192 62.9634 21.416 63.512 21.4694L65.2564 21.6048C66.2621 21.682 67.0392 21.9367 67.5878 22.369C68.1363 22.8013 68.4106 23.4432 68.4106 24.2946C68.4136 24.6958 68.3159 25.0914 68.1264 25.4462C67.9281 25.8114 67.6464 26.1259 67.3035 26.3648C66.9049 26.6413 66.4609 26.8476 65.9911 26.9746C65.4193 27.1307 64.8279 27.2061 64.2346 27.1985C62.8888 27.1985 61.8111 26.9211 61.0016 26.3662C60.192 25.8113 59.6828 25.089 59.4739 24.1992H61.7477C61.904 24.6118 62.2119 24.9182 62.6714 25.1185C63.1309 25.3187 63.7252 25.4186 64.4542 25.4181C64.99 25.4181 65.4374 25.3311 65.7964 25.1571C66.1555 24.983 66.3351 24.7283 66.3351 24.3929C66.3423 24.2473 66.3063 24.1029 66.2314 23.9773C66.1565 23.8517 66.0461 23.7505 65.9137 23.6862C65.6328 23.5379 65.218 23.438 64.6695 23.3866L62.8085 23.2125C61.7896 23.1091 61.0253 22.8478 60.5156 22.4287C60.0058 22.0095 59.7512 21.3933 59.7517 20.5802C59.7487 20.1793 59.8463 19.7839 60.0359 19.4294C60.2323 19.0659 60.5063 18.7489 60.8389 18.5002C61.2212 18.2181 61.6532 18.0082 62.1129 17.8813C62.6641 17.7262 63.2352 17.6512 63.8083 17.6588C64.423 17.6505 65.036 17.7253 65.6302 17.8813C66.1195 18.009 66.5855 18.2114 67.0115 18.4813C67.3852 18.7218 67.7081 19.0316 67.9622 19.3936C68.2058 19.7391 68.391 20.1214 68.5108 20.5255H66.2555C66.0592 20.1498 65.7322 19.8568 65.3346 19.7002Z" fill="black"/>
<path d="M75.2293 25.062C75.5987 24.9086 75.9129 24.6489 76.131 24.3167H78.3841C78.0629 25.1842 77.4642 25.9247 76.6788 26.4262C75.8751 26.9433 74.9335 27.212 73.9744 27.1981C73.3073 27.2052 72.6453 27.0836 72.0253 26.8402C71.4501 26.6145 70.9271 26.2763 70.4877 25.8458C70.052 25.4128 69.7059 24.9001 69.4687 24.3364C69.2153 23.729 69.0887 23.0774 69.0964 22.4206C69.0918 21.7781 69.2124 21.1408 69.4517 20.5434C69.6756 19.98 70.012 19.4669 70.4408 19.0346C70.8717 18.6045 71.3844 18.2625 71.9493 18.0283C72.5605 17.7771 73.2172 17.652 73.8792 17.6606C74.5212 17.6534 75.1579 17.7751 75.7508 18.0185C76.3047 18.2474 76.8049 18.5866 77.2202 19.015C77.6347 19.4456 77.9607 19.9516 78.1802 20.5048C78.4124 21.0904 78.5289 21.7145 78.5234 22.3434V22.7497C78.5226 22.886 78.5093 23.022 78.4836 23.156H71.2522C71.3527 23.7724 71.6848 24.3287 72.1824 24.7139C72.6854 25.1069 73.283 25.3036 73.9751 25.3041C74.4056 25.3093 74.8325 25.2269 75.2293 25.062ZM72.1532 20.05C71.9183 20.2247 71.7211 20.4438 71.5731 20.6947C71.4251 20.9456 71.3293 21.2232 71.2913 21.5111H76.3264C76.2221 20.9029 75.9545 20.4159 75.5234 20.05C75.0924 19.6842 74.5436 19.5003 73.8771 19.4985C73.2115 19.4985 72.6369 19.6823 72.1532 20.05Z" fill="black"/>
<path d="M81.6362 26.9472H79.5592V14.002H81.6362V26.9472Z" fill="black"/>
<path d="M85.3199 26.9472H83.2429V14.002H85.3199V26.9472Z" fill="black"/>
<path d="M92.4915 25.0602C92.8607 24.9067 93.1747 24.647 93.3924 24.3149H95.6456C95.3244 25.1824 94.7257 25.9229 93.9403 26.4244C93.1378 26.9408 92.1979 27.2095 91.2402 27.1963C90.5729 27.2034 89.9106 27.0818 89.2904 26.8384C88.7148 26.612 88.1916 26.2731 87.752 25.8419C87.3165 25.4089 86.9706 24.8962 86.7338 24.3325C86.48 23.7252 86.3533 23.0735 86.3614 22.4167C86.3569 21.7742 86.4775 21.1369 86.7167 20.5395C86.9407 19.9761 87.277 19.463 87.7058 19.0307C88.137 18.6005 88.6499 18.2586 89.2151 18.0244C89.8263 17.7732 90.483 17.648 91.1449 17.6567C91.7867 17.6494 92.4233 17.7711 93.0159 18.0146C93.5699 18.2433 94.0701 18.5826 94.4853 19.0111C94.9 19.4415 95.2261 19.9475 95.4453 20.5009C95.6775 21.0865 95.794 21.7106 95.7885 22.3395V22.7458C95.7879 22.8821 95.7748 23.0181 95.7494 23.1521H88.5137C88.6141 23.7687 88.9466 24.3251 89.4446 24.71C89.9472 25.103 90.5448 25.2997 91.2373 25.3002C91.6676 25.306 92.0945 25.2243 92.4915 25.0602ZM89.4147 20.0482C89.1799 20.2229 88.9827 20.4421 88.8347 20.693C88.6867 20.9439 88.5909 21.2214 88.5528 21.5093H93.5886C93.4843 20.9011 93.2165 20.4141 92.7849 20.0482C92.3534 19.6824 91.8048 19.4985 91.1393 19.4967C90.4728 19.4967 89.8979 19.6805 89.4147 20.0482Z" fill="black"/>
<path d="M98.8985 19.017C99.1202 18.6816 99.4729 18.4008 99.9565 18.1749C100.44 17.9489 101.021 17.8359 101.7 17.8359H102.542V19.7889H101.7C100.8 19.7889 100.108 20.0437 99.6233 20.5531C99.1387 21.0626 98.8971 21.7368 98.8985 22.5756V26.9468H96.8215V17.9103H98.8985V19.017Z" fill="black"/>
</svg>
