<svg width="40" height="40" viewBox="0 0 40 40" fill="none" xmlns="http://www.w3.org/2000/svg">
<path d="M21.2007 18C20.4007 17.8 19.6007 17.4 19.0007 16.8C18.4007 16.6 18.2007 16 18.2007 15.6C18.2007 15.2 18.4007 14.6 18.8007 14.4C19.4007 14 20.0007 13.6 20.6007 13.8C21.8007 13.8 22.8007 14.4 23.4007 15.2L25.2007 12.8C24.6007 12.2 24.0007 11.8 23.4007 11.4C22.8007 11 22.0007 10.8 21.2007 10.8V8H18.8007V10.8C17.8007 11 16.8007 11.6 16.0007 12.4C15.2007 13.4 14.6007 14.6 14.8007 15.8C14.8007 17 15.2007 18.2 16.0007 19C17.0007 20 18.4007 20.6 19.6007 21.2C20.2007 21.4 21.0007 21.8 21.6007 22.2C22.0007 22.6 22.2007 23.2 22.2007 23.8C22.2007 24.4 22.0007 25 21.6007 25.6C21.0007 26.2 20.2007 26.4 19.6007 26.4C18.8007 26.4 17.8007 26.2 17.2007 25.6C16.6007 25.2 16.0007 24.6 15.6007 24L13.6007 26.2C14.2007 27 14.8007 27.6 15.6007 28.2C16.6007 28.8 17.8007 29.4 19.0007 29.4V32H21.2007V29C22.4007 28.8 23.4007 28.2 24.2007 27.4C25.2007 26.4 25.8007 24.8 25.8007 23.4C25.8007 22.2 25.4007 20.8 24.4007 20C23.4007 19 22.4007 18.4 21.2007 18ZM20.0007 4C11.2007 4 4.00073 11.2 4.00073 20C4.00073 28.8 11.2007 36 20.0007 36C28.8007 36 36.0007 28.8 36.0007 20C36.0007 11.2 28.8007 4 20.0007 4ZM20.0007 33.8C12.4007 33.8 6.20073 27.6 6.20073 20C6.20073 12.4 12.4007 6.2 20.0007 6.2C27.6007 6.2 33.8007 12.4 33.8007 20C33.8007 27.6 27.6007 33.8 20.0007 33.8Z" fill="#FF6C40"/>
</svg>
